<svg id="Layer_1" data-name="Layer 1" xmlns="http://www.w3.org/2000/svg" viewBox="0 0 91.56 91.56"><defs><style>.cls-1{fill:#24b572;}.cls-2{fill:#18824e;}.cls-3{fill:#fff;}</style></defs><title>logo</title><rect class="cls-1" width="91.56" height="91.56" rx="9.14"/><path class="cls-2" d="M59.7,35.74a1.64,1.64,0,0,1-1.58-1.28,7,7,0,0,0-2.7-4,11.56,11.56,0,0,0-6.94-1.88q-4.48,0-6.87,1.83A5.59,5.59,0,0,0,39.21,35a5,5,0,0,0,2.67,4.68,23,23,0,0,0,6.46,2.47l5.18,1.24a34.08,34.08,0,0,1,8.91,3.26,17,17,0,0,1,6.14,5.51,14.45,14.45,0,0,1,2.24,8.18A15.36,15.36,0,0,1,64.88,73Q59,77.63,48.42,77.64T31.67,72.85Q26,68.53,25.29,60.51a1.66,1.66,0,0,1,1.64-1.8h8.64a1.63,1.63,0,0,1,1.59,1.35,7.86,7.86,0,0,0,3.25,5.17,13.37,13.37,0,0,0,7.87,2.19,12.52,12.52,0,0,0,7.42-2,6.09,6.09,0,0,0,2.8-5.12,5.09,5.09,0,0,0-2.56-4.51,25,25,0,0,0-7.24-2.7l-6.28-1.58A25.88,25.88,0,0,1,30.91,46a12.93,12.93,0,0,1-4.2-10.17,15.15,15.15,0,0,1,2.8-9.16,18.57,18.57,0,0,1,7.79-6.11,27.59,27.59,0,0,1,11.26-2.19,26.8,26.8,0,0,1,11.22,2.2,17.78,17.78,0,0,1,7.48,6.11,15.77,15.77,0,0,1,2.65,7.26,1.65,1.65,0,0,1-1.63,1.81Z" transform="translate(-2.22 -2.22)"/><path class="cls-3" d="M59.7,32.74a1.64,1.64,0,0,1-1.58-1.28,7,7,0,0,0-2.7-4,11.56,11.56,0,0,0-6.94-1.88q-4.48,0-6.87,1.83A5.59,5.59,0,0,0,39.21,32a5,5,0,0,0,2.67,4.68,23,23,0,0,0,6.46,2.47l5.18,1.24a34.08,34.08,0,0,1,8.91,3.26,17,17,0,0,1,6.14,5.51,14.45,14.45,0,0,1,2.24,8.18A15.36,15.36,0,0,1,64.88,70Q59,74.63,48.42,74.64T31.67,69.85Q26,65.53,25.29,57.51a1.66,1.66,0,0,1,1.64-1.8h8.64a1.63,1.63,0,0,1,1.59,1.35,7.86,7.86,0,0,0,3.25,5.17,13.37,13.37,0,0,0,7.87,2.19,12.52,12.52,0,0,0,7.42-2,6.09,6.09,0,0,0,2.8-5.12,5.09,5.09,0,0,0-2.56-4.51,25,25,0,0,0-7.24-2.7l-6.28-1.58A25.88,25.88,0,0,1,30.91,43a12.93,12.93,0,0,1-4.2-10.17,15.15,15.15,0,0,1,2.8-9.16,18.57,18.57,0,0,1,7.79-6.11,27.59,27.59,0,0,1,11.26-2.19,26.8,26.8,0,0,1,11.22,2.2,17.78,17.78,0,0,1,7.48,6.11,15.77,15.77,0,0,1,2.65,7.26,1.65,1.65,0,0,1-1.63,1.81Z" transform="translate(-2.22 -2.22)"/></svg>